<svg id="Layer_1" data-name="Layer 1" xmlns="http://www.w3.org/2000/svg" viewBox="0 0 270.35 35.52"><defs><style>.cls-1{fill:#1ead96;}.cls-2{fill:#cfc82a;}</style></defs><path class="cls-1" d="M98,33.09a1.82,1.82,0,1,1,0-3.63h19.87a1.82,1.82,0,1,1,0,3.63Z"/><path class="cls-1" d="M5,33.14a1.94,1.94,0,0,1-1.31-.5l-.1-.09a1.84,1.84,0,0,1-.51-1.27V4.08A1.87,1.87,0,0,1,4.71,2.4l.17,0H5A1.92,1.92,0,0,1,6.88,3.87a1.5,1.5,0,0,1,0,.37V29.42H24.86a1.86,1.86,0,1,1,0,3.72Z"/><path class="cls-1" d="M5,33.1a1.89,1.89,0,0,1-1.28-.5l-.1-.08a1.81,1.81,0,0,1-.5-1.24v-27a.76.76,0,0,1,0-.15A1.81,1.81,0,0,1,4.71,2.44l.18,0H5A1.87,1.87,0,0,1,6.84,3.88a2.19,2.19,0,0,1,0,.36V29.46h18a1.82,1.82,0,1,1,0,3.64Z"/><path class="cls-1" d="M71.67,33.14a1.93,1.93,0,0,1-1.74-1.07l-2.77-6.26L64.44,32a2,2,0,0,1-1.78,1.13,1.89,1.89,0,0,1-1.92-1.86,1.79,1.79,0,0,1,.15-.72l4.18-9.49L59.75,9,49.6,32a1.94,1.94,0,0,1-1.78,1.14,1.89,1.89,0,0,1-1.92-1.86,1.69,1.69,0,0,1,.13-.66L58,3.51a1.88,1.88,0,0,1,1-1,2.46,2.46,0,0,1,.83-.14,1.9,1.9,0,0,1,.76.14,1.88,1.88,0,0,1,1,1l5.64,12.8,5.65-12.8a1.86,1.86,0,0,1,1-1,2.87,2.87,0,0,1,.87-.14,1.73,1.73,0,0,1,.71.14,1.92,1.92,0,0,1,1,1l11.91,27a1.92,1.92,0,0,1,.16.73,1.9,1.9,0,0,1-1.93,1.86A1.94,1.94,0,0,1,84.73,32L74.58,9,69.26,21.06l4.18,9.49a1.74,1.74,0,0,1,.16.73A1.9,1.9,0,0,1,71.67,33.14Z"/><path class="cls-1" d="M71.67,33.1A1.9,1.9,0,0,1,70,32.05l-2.8-6.35L64.4,32a1.92,1.92,0,0,1-1.74,1.11,1.86,1.86,0,0,1-1.88-1.82,1.73,1.73,0,0,1,.15-.7l4.19-9.51L59.75,8.88,49.56,32a1.89,1.89,0,0,1-3.62-.7,1.64,1.64,0,0,1,.13-.65L58,3.53a1.89,1.89,0,0,1,1-.95,2.71,2.71,0,0,1,.81-.13,1.84,1.84,0,0,1,.74.14,1.87,1.87,0,0,1,1,.94l5.68,12.89L72.85,3.53a1.82,1.82,0,0,1,1-.94,2.64,2.64,0,0,1,.85-.14,1.63,1.63,0,0,1,.69.14,1.88,1.88,0,0,1,1,.94l11.91,27a1.81,1.81,0,0,1,.15.71,1.85,1.85,0,0,1-1.88,1.82A1.9,1.9,0,0,1,84.77,32L74.58,8.88,69.21,21.06l4.19,9.5a1.75,1.75,0,0,1,.15.72A1.85,1.85,0,0,1,71.67,33.1Z"/><path class="cls-1" d="M98,19.62a1.86,1.86,0,1,1,0-3.72h17.88a1.86,1.86,0,1,1,0,3.72Z"/><path class="cls-1" d="M98,19.58a1.82,1.82,0,1,1,0-3.64h17.88a1.82,1.82,0,1,1,0,3.64Z"/><path class="cls-1" d="M98,6.1a1.89,1.89,0,0,1-1.92-1.86A1.9,1.9,0,0,1,98,2.38h19.87a1.9,1.9,0,0,1,1.92,1.86,1.89,1.89,0,0,1-1.92,1.86Z"/><path class="cls-1" d="M98,6.06a1.85,1.85,0,0,1-1.88-1.82A1.84,1.84,0,0,1,98,2.43h19.87a1.85,1.85,0,0,1,1.88,1.81,1.86,1.86,0,0,1-1.88,1.82Z"/><path class="cls-1" d="M36.34,33.14A2,2,0,0,1,35,32.57a1.83,1.83,0,0,1-.55-1.29V4.06l0-.14,0-.11A1.9,1.9,0,0,1,36.05,2.4l.17,0h.12a1.93,1.93,0,0,1,1.85,1.34l0,.15a2.22,2.22,0,0,1,0,.37v27a1.9,1.9,0,0,1-1.92,1.87Z"/><path class="cls-1" d="M36.34,33.09A2,2,0,0,1,35,32.54a1.75,1.75,0,0,1-.54-1.26V4.06l0-.13,0-.11a1.89,1.89,0,0,1,1.56-1.38l.17,0h.11a1.88,1.88,0,0,1,1.8,1.31l0,.15a1.42,1.42,0,0,1,0,.36v27a1.85,1.85,0,0,1-1.88,1.82Z"/><path class="cls-2" d="M130.9,33.14a2,2,0,0,1-1.31-.5l-.1-.09a1.84,1.84,0,0,1-.51-1.27v-27a.81.81,0,0,1,0-.16,1.85,1.85,0,0,1,1.63-1.68l.17,0h.11a1.92,1.92,0,0,1,1.89,1.49,1.5,1.5,0,0,1,0,.37V29.42h17.94a1.86,1.86,0,1,1,0,3.72Z"/><path class="cls-2" d="M130.9,33.1a1.91,1.91,0,0,1-1.28-.5l-.09-.08a1.77,1.77,0,0,1-.51-1.24v-27a.76.76,0,0,1,0-.15,1.82,1.82,0,0,1,1.59-1.65l.18,0h.1a1.86,1.86,0,0,1,1.85,1.46,2.2,2.2,0,0,1,0,.36V29.46h18a1.82,1.82,0,1,1,0,3.64Z"/><path class="cls-2" d="M187.64,33.14A17,17,0,0,1,181.35,32a15.14,15.14,0,0,1-5-3.23A14.8,14.8,0,0,1,173,23.86a15.62,15.62,0,0,1-1.2-6.1,15.62,15.62,0,0,1,1.2-6.1,14.8,14.8,0,0,1,3.32-4.87,15.14,15.14,0,0,1,5-3.23,16.91,16.91,0,0,1,6.29-1.18,16,16,0,0,1,11.3,4.42,1.83,1.83,0,0,1,.56,1.3A1.89,1.89,0,0,1,197.57,10a2,2,0,0,1-1.37-.55,12.15,12.15,0,0,0-8.56-3.31c-6.94,0-12,4.9-12,11.66s5,11.66,12,11.66a12.36,12.36,0,0,0,7.81-2.66l.2-.16v-7h-12a1.86,1.86,0,1,1,0-3.72h13.9a2,2,0,0,1,1.32.5l.1.1a1.82,1.82,0,0,1,.51,1.26v9.66a1.86,1.86,0,0,1-.56,1.3A16,16,0,0,1,187.64,33.14Z"/><path class="cls-2" d="M187.64,33.09a16.8,16.8,0,0,1-6.27-1.17,15.07,15.07,0,0,1-5-3.22,14.78,14.78,0,0,1-3.31-4.86,16,16,0,0,1,0-12.17,14.84,14.84,0,0,1,3.31-4.85,15.07,15.07,0,0,1,5-3.22,16.8,16.8,0,0,1,6.27-1.17,16,16,0,0,1,11.27,4.4,1.82,1.82,0,0,1,.55,1.27,1.86,1.86,0,0,1-1.89,1.82,1.92,1.92,0,0,1-1.33-.54,12.23,12.23,0,0,0-8.6-3.32c-7,0-12,4.92-12,11.7s5,11.7,12,11.7a12.41,12.41,0,0,0,7.85-2.68l.2-.16v-7h-12a1.82,1.82,0,1,1,0-3.64h13.9a2,2,0,0,1,1.29.49l.1.1a1.78,1.78,0,0,1,.5,1.23v9.66a1.82,1.82,0,0,1-.55,1.27A16,16,0,0,1,187.64,33.09Z"/><path class="cls-2" d="M230,33.14a1.9,1.9,0,0,1-1.93-1.86V19.62h-16V31.27a1.93,1.93,0,0,1-3.85,0v-27a1.93,1.93,0,0,1,3.85,0V15.9h16V4.24A1.9,1.9,0,0,1,230,2.38a2,2,0,0,1,1.4.55A1.81,1.81,0,0,1,232,4.24v27A1.91,1.91,0,0,1,230,33.14Z"/><path class="cls-2" d="M230,33.1a1.85,1.85,0,0,1-1.88-1.82V19.57H212v11.7a1.89,1.89,0,0,1-3.77,0v-27a1.89,1.89,0,0,1,3.77,0v11.7h16.1V4.24A1.85,1.85,0,0,1,230,2.42a1.92,1.92,0,0,1,1.35.54,1.73,1.73,0,0,1,.55,1.28v27A1.85,1.85,0,0,1,230,33.1Z"/><path class="cls-2" d="M253.43,33.14a2,2,0,0,1-1-.26,1.85,1.85,0,0,1-.93-1.54V6.09H241.38l-.2,0L241,6l-.07,0h-.06l-.09,0a.91.91,0,0,1-.22-.11.63.63,0,0,1-.18-.11,1.86,1.86,0,0,1-.66-.83l0-.11h0l-.07-.23V4.43a.8.8,0,0,1,0-.19V4.11a.37.37,0,0,1,0-.11l0-.16,0-.15a1.86,1.86,0,0,1,.12-.3l.07-.12A3,3,0,0,1,240,3l.13-.13.12-.1.11-.08.21-.12.07-.06h.06l.1,0,.13,0,.23-.05.18,0h24.26l.15,0,.22.06.14,0,.13.07a.69.69,0,0,1,.17.1l.11.08a.4.4,0,0,1,.12.1,1.38,1.38,0,0,1,.3.34l.09.16a1.45,1.45,0,0,1,.11.25l.05.15,0,.13a1.57,1.57,0,0,1,0,.2v.25a1.77,1.77,0,0,1,0,.2l0,.14-.07.21a1.94,1.94,0,0,1-1.41,1.14l-.38,0h-10v25.2a1.8,1.8,0,0,1-.93,1.59A2,2,0,0,1,253.43,33.14Z"/><path class="cls-2" d="M253.43,33.1a2,2,0,0,1-1-.26,1.79,1.79,0,0,1-.91-1.51V6.05H241.38l-.2,0L241,6l-.07,0h-.05l-.09,0-.23-.11-.17-.11a1.82,1.82,0,0,1-.65-.81l-.05-.15-.06-.19v-.1a2.07,2.07,0,0,1,0-.21V4.13c0-.06,0-.1,0-.13l0-.17,0-.17c0-.09.07-.17.11-.26l.06-.1a2.11,2.11,0,0,1,.19-.25l.13-.13.12-.1.1-.07.28-.17h0l.1,0,.16-.06.21,0h24.31l.25,0,.22.06.14.05.13.07a.69.69,0,0,1,.17.1.52.52,0,0,1,.11.07l.12.1a1.75,1.75,0,0,1,.28.33l.09.15a1.89,1.89,0,0,1,.11.25l.07.29c0,.1,0,.14,0,.18v.12a.57.57,0,0,1,0,.13,1.55,1.55,0,0,1,0,.18l0,.13-.07.21A1.88,1.88,0,0,1,265.73,6a1.55,1.55,0,0,1-.37,0H255.31V31.29a1.79,1.79,0,0,1-.91,1.55A2,2,0,0,1,253.43,33.1Z"/><path class="cls-2" d="M162.25,33.14a2,2,0,0,1-1.37-.57,1.8,1.8,0,0,1-.56-1.29V4.12l0-.19,0-.16A1.88,1.88,0,0,1,162,2.4l.17,0h.12a1.93,1.93,0,0,1,1.84,1.31v.05l0,0v.08a1.81,1.81,0,0,1,.05.39v27a1.91,1.91,0,0,1-1.93,1.87Z"/><path class="cls-2" d="M162.25,33.09a1.93,1.93,0,0,1-1.34-.55,1.75,1.75,0,0,1-.54-1.26V4.13l0-.19,0-.16A1.85,1.85,0,0,1,162,2.44l.18,0h.1a1.89,1.89,0,0,1,1.8,1.29v0l0,0v0a2,2,0,0,1,0,.43v27a1.85,1.85,0,0,1-1.88,1.82Z"/></svg>